<?xml version="1.0" encoding="UTF-8"?>
<svg width="495px" height="534px" viewBox="0 0 495 534" version="1.1" xmlns="http://www.w3.org/2000/svg" xmlns:xlink="http://www.w3.org/1999/xlink">
    <!-- Generator: sketchtool 56.2 (101010) - https://sketch.com -->
    <title>640DA59E-7975-4CDA-BFD0-C99C4881C595</title>
    <desc>Created with sketchtool.</desc>
    <defs>
        <linearGradient x1="59.5242539%" y1="31.6638983%" x2="0%" y2="66.6654183%" id="linearGradient-1">
            <stop stop-color="#2D81FF" offset="0%"></stop>
            <stop stop-color="#FFFFFF" offset="100%"></stop>
        </linearGradient>
        <linearGradient x1="47.8662948%" y1="15.470798%" x2="51.3181338%" y2="28.4821368%" id="linearGradient-2">
            <stop stop-color="#BDD8FF" offset="0%"></stop>
            <stop stop-color="#FFFFFF" offset="100%"></stop>
        </linearGradient>
        <linearGradient x1="50%" y1="-8.29161873%" x2="50.1847752%" y2="93.2099782%" id="linearGradient-3">
            <stop stop-color="#9DC0F5" offset="0%"></stop>
            <stop stop-color="#FFFFFF" offset="100%"></stop>
        </linearGradient>
        <linearGradient x1="59.5242539%" y1="31.6638983%" x2="0%" y2="66.6654183%" id="linearGradient-4">
            <stop stop-color="#2D81FF" offset="0%"></stop>
            <stop stop-color="#FFFFFF" offset="100%"></stop>
        </linearGradient>
        <linearGradient x1="47.8662948%" y1="15.470798%" x2="51.3181338%" y2="28.4821368%" id="linearGradient-5">
            <stop stop-color="#BDD8FF" offset="0%"></stop>
            <stop stop-color="#FFFFFF" offset="100%"></stop>
        </linearGradient>
        <linearGradient x1="50%" y1="-8.29161873%" x2="50.1847752%" y2="93.2099782%" id="linearGradient-6">
            <stop stop-color="#9DC0F5" offset="0%"></stop>
            <stop stop-color="#FFFFFF" offset="100%"></stop>
        </linearGradient>
        <linearGradient x1="-61.5511832%" y1="23.4043394%" x2="-27.2409922%" y2="123.171004%" id="linearGradient-7">
            <stop stop-color="#D2E4FE" offset="0%"></stop>
            <stop stop-color="#FFFFFF" stop-opacity="0" offset="100%"></stop>
        </linearGradient>
        <linearGradient x1="45.5587607%" y1="13.9605872%" x2="49.9776109%" y2="96.6761094%" id="linearGradient-8">
            <stop stop-color="#FFFFFF" stop-opacity="0" offset="0%"></stop>
            <stop stop-color="#A27CF5" offset="100%"></stop>
        </linearGradient>
        <linearGradient x1="100%" y1="33.308642%" x2="16.2798373%" y2="60.6822321%" id="linearGradient-9">
            <stop stop-color="#9B6EFF" stop-opacity="0.339406687" offset="0%"></stop>
            <stop stop-color="#8245FD" stop-opacity="0.828425481" offset="100%"></stop>
        </linearGradient>
        <linearGradient x1="35.5562035%" y1="58.8349909%" x2="49.0784599%" y2="82.6418071%" id="linearGradient-10">
            <stop stop-color="#D2E4FE" stop-opacity="0.818181818" offset="0%"></stop>
            <stop stop-color="#FFFFFF" offset="100%"></stop>
        </linearGradient>
        <linearGradient x1="50.7976185%" y1="-5.0124255%" x2="48.027515%" y2="51.7735566%" id="linearGradient-11">
            <stop stop-color="#D2E4FE" stop-opacity="0.818181818" offset="0%"></stop>
            <stop stop-color="#FFFFFF" offset="100%"></stop>
        </linearGradient>
        <linearGradient x1="59.5242539%" y1="31.6638983%" x2="0%" y2="66.6654183%" id="linearGradient-12">
            <stop stop-color="#2D81FF" offset="0%"></stop>
            <stop stop-color="#FFFFFF" offset="100%"></stop>
        </linearGradient>
        <linearGradient x1="47.8662948%" y1="15.470798%" x2="51.3181338%" y2="28.4821368%" id="linearGradient-13">
            <stop stop-color="#BDD8FF" offset="0%"></stop>
            <stop stop-color="#FFFFFF" offset="100%"></stop>
        </linearGradient>
        <linearGradient x1="50%" y1="-8.29161873%" x2="50.1847752%" y2="93.2099782%" id="linearGradient-14">
            <stop stop-color="#9DC0F5" offset="0%"></stop>
            <stop stop-color="#FFFFFF" offset="100%"></stop>
        </linearGradient>
        <linearGradient x1="83.8448289%" y1="37.7401406%" x2="22.2075854%" y2="59.8687406%" id="linearGradient-15">
            <stop stop-color="#A27CF5" offset="0%"></stop>
            <stop stop-color="#FFFFFF" stop-opacity="0" offset="100%"></stop>
        </linearGradient>
        <linearGradient x1="-61.8687665%" y1="23.4043394%" x2="-27.4608953%" y2="123.171004%" id="linearGradient-16">
            <stop stop-color="#D2E4FE" offset="0%"></stop>
            <stop stop-color="#FFFFFF" stop-opacity="0" offset="100%"></stop>
        </linearGradient>
    </defs>
    <g id="UI-(Desktop)" stroke="none" stroke-width="1" fill="none" fill-rule="evenodd">
        <g id="Platform-/-Learning-Paths" transform="translate(-808.000000, -124.000000)">
            <g id="header-image" transform="translate(808.000000, 91.000000)">
                <g id="Group" opacity="0.2" transform="translate(88.000000, 69.000000)" fill-rule="nonzero">
                    <polygon id="Path" fill="url(#linearGradient-1)" points="31.872 37.164 63.736 18.768 31.872 0.372 0.008 18.768"></polygon>
                    <polygon id="Path" fill="url(#linearGradient-2)" style="mix-blend-mode: lighten;" points="31.872 37.164 0.008 18.768 0.008 276.872 31.872 276.872"></polygon>
                    <polygon id="Path" fill="url(#linearGradient-3)" style="mix-blend-mode: lighten;" points="31.872 37.164 63.736 18.768 63.736 276.872 31.872 276.872"></polygon>
                </g>
                <g id="Group-Copy" opacity="0.2" transform="translate(0.000000, 234.000000)" fill-rule="nonzero">
                    <polygon id="Path" fill="url(#linearGradient-4)" points="38.2464 44.5968 76.4832 22.5216 38.2464 0.4464 0.0096 22.5216"></polygon>
                    <polygon id="Path" fill="url(#linearGradient-5)" style="mix-blend-mode: lighten;" points="38.2464 44.5968 0.0096 22.5216 0.0096 332.2464 38.2464 332.2464"></polygon>
                    <polygon id="Path" fill="url(#linearGradient-6)" style="mix-blend-mode: lighten;" points="38.2464 44.5968 76.4832 22.5216 76.4832 332.2464 38.2464 332.2464"></polygon>
                </g>
                <polygon id="Path-29" fill="url(#linearGradient-7)" points="39 234 39 278 77 256"></polygon>
                <path d="M391.498248,232 L391.498248,205.214048 L431.518692,182.060328 C472.42194,158.429789 472.407927,119.975821 431.518692,96.345282 L288,13.3929759 L311.177106,0 L454.737836,82.9523061 C508.420721,113.973524 508.420721,164.432086 454.737836,195.453304 L391.498248,232 Z" id="Path" fill="url(#linearGradient-8)" fill-rule="nonzero"></path>
                <polygon id="Path" fill-opacity="0.34" fill="url(#linearGradient-9)" fill-rule="nonzero" points="212 121 301.993009 69 392 121 301.993009 173"></polygon>
                <polygon id="Path" fill="url(#linearGradient-10)" fill-rule="nonzero" points="302 173.041068 392 121 392 432 302 432"></polygon>
                <polygon id="Path" fill="url(#linearGradient-11)" fill-rule="nonzero" opacity="0.51999628" style="mix-blend-mode: multiply;" points="301 432 301 173.041068 211 121 211 432"></polygon>
                <path d="M262.985994,304 L243,292.370308 L243,271.199752 C243,264.298151 247.201681,261.122567 252.29972,264.1429 L253.70028,264.947381 C258.840336,267.939486 263,275.95607 263,282.857671 L262.985994,304 Z" id="Path" fill="#45536B" fill-rule="nonzero"></path>
                <g id="Group-Copy-2" opacity="0.2" transform="translate(425.000000, 247.000000)" fill-rule="nonzero">
                    <polygon id="Path" fill="url(#linearGradient-12)" points="30.59712 35.67744 61.18656 18.01728 30.59712 0.35712 0.00768 18.01728"></polygon>
                    <polygon id="Path" fill="url(#linearGradient-13)" style="mix-blend-mode: lighten;" points="30.59712 35.67744 0.00768 18.01728 0.00768 265.79712 30.59712 265.79712"></polygon>
                    <polygon id="Path" fill="url(#linearGradient-14)" style="mix-blend-mode: lighten;" points="30.59712 35.67744 61.18656 18.01728 61.18656 265.79712 30.59712 265.79712"></polygon>
                </g>
                <path d="M262.887865,281 L242.997873,292.373409 L6,429.528302 L26.0021271,441 L263,303.943396 L263,282.881527 C262.997149,282.252764 262.959714,281.624636 262.887865,281 Z" id="Path" fill="url(#linearGradient-15)" fill-rule="nonzero"></path>
                <polygon id="Path-11" fill-opacity="0.232435533" fill="#A27CF5" points="302 70 302 173 392 121.206306"></polygon>
                <polygon id="Path-29" fill="url(#linearGradient-16)" points="120 69 120 106 152 87.5"></polygon>
            </g>
        </g>
    </g>
</svg>